# xmcd
#
# Track frame offsets:
#	150
#	13262
#	31605
#	46959
#	65008
#	78118
#	96364
#	113165
#	128098
#	141210
#	159553
#	174907
#	192956
#	206066
#	224312
#	241113
#	267296
#
# Disc length: 4569 seconds
#
# Revision: 1
# Processed by: cddbd v1.5.2PL0 Copyright (c) Steve Scherf et al.
# Submitted via: audiograbber 1.83.01
#
DISCID=e711d711
DTITLE=Various Artist - ASK-826
DYEAR=1900
DGENRE=
TTITLE0=Easton Corbin - A Little More Country Than That
TTITLE1=Kenny Chesney - Ain't Back Yet
TTITLE2=Jason Aldean - Big Green Tractor
TTITLE3=Zac Brown Band - Chicken Fried
TTITLE4=Eric Church - Hell On The Heart
TTITLE5=Zac Brown Band - Highway 20 Ride
TTITLE6=Blake Shelton feat. Trace Adkins - Hilllbillly Bone
TTITLE7=George Strait - I Gotta Get To You
TTITLE8=Easton Corbin - (Voca)l A Little More Country Than That
TTITLE9=Kenny Chesney - (Vocal) Ain't Back Yet
TTITLE10=Jason Aldean - (Vocal) Big Green Tractor
TTITLE11=Zac Brown Band - (Vocal) Chicken Fried
TTITLE12=Eric Church - (Vocal) Hell On The Heart
TTITLE13=Zac Brown Band - (Vocal) Highway 20 Ride
TTITLE14=Blake Shelton feat. Trace Adkins - (Vocal) Hillbilly Bone
TTITLE15=George Strait - (Vocal) I Gotta Get To You
TTITLE16=N/A - Data Track
EXTD=
EXTT0=
EXTT1=
EXTT2=
EXTT3=
EXTT4=
EXTT5=
EXTT6=
EXTT7=
EXTT8=
EXTT9=
EXTT10=
EXTT11=
EXTT12=
EXTT13=
EXTT14=
EXTT15=
EXTT16=Data
PLAYORDER=
